<?xml version="1.0" standalone="no"?>
<!DOCTYPE svg PUBLIC "-//W3C//DTD SVG 20010904//EN"
 "http://www.w3.org/TR/2001/REC-SVG-20010904/DTD/svg10.dtd">
<svg version="1.0" xmlns="http://www.w3.org/2000/svg"
 width="783.000000pt" height="783.000000pt" viewBox="0 0 783.000000 783.000000"
 preserveAspectRatio="xMidYMid meet">
<metadata>
Created by potrace 1.14, written by Peter Selinger 2001-2017
</metadata>
<g transform="translate(0.000000,783.000000) scale(0.100000,-0.100000)"
fill="#000000" stroke="none">
<path d="M4587 7572 c-21 -23 -22 -52 -2 -78 9 -13 12 -31 8 -57 -7 -48 16
-77 63 -77 57 0 85 68 44 105 -15 13 -17 22 -10 36 15 27 12 54 -8 72 -25 22
-75 21 -95 -1z"/>
<path d="M3458 7547 c-21 -16 -33 -61 -21 -81 11 -20 78 -64 108 -72 28 -7 75
33 75 63 0 22 -27 63 -41 63 -6 0 -22 9 -36 20 -29 23 -60 25 -85 7z"/>
<path d="M4392 7519 c-12 -5 -28 -20 -34 -35 -10 -21 -9 -31 4 -54 15 -27 15
-30 -3 -46 -19 -17 -20 -17 -35 4 -10 15 -26 22 -49 22 -47 0 -68 -24 -60 -69
8 -49 9 -90 1 -98 -3 -3 -14 1 -24 10 -10 10 -25 17 -34 17 -11 0 -13 8 -10
30 2 17 -1 36 -7 44 -9 10 -7 21 6 45 16 28 17 33 3 58 -31 55 -120 35 -120
-26 0 -14 4 -32 9 -40 6 -10 5 -22 -5 -35 -27 -39 -11 -86 34 -100 17 -6 21
-12 16 -31 -9 -34 37 -79 72 -71 16 4 30 1 40 -9 31 -31 104 -12 104 27 0 17
3 19 12 10 7 -7 28 -12 48 -12 31 0 42 7 68 39 27 34 32 48 34 105 3 55 0 67
-17 81 -19 14 -16 15 31 9 44 -5 55 -3 73 15 46 46 9 118 -56 108 -19 -3 -44
-2 -56 2 -12 5 -32 5 -45 0z m-52 -210 c0 -11 -4 -18 -10 -14 -5 3 -7 12 -3
20 7 21 13 19 13 -6z"/>
<path d="M3729 7459 c-10 -10 -19 -26 -19 -34 0 -9 -9 -15 -25 -15 -15 0 -31
-10 -41 -26 -22 -33 -10 -72 29 -94 24 -13 30 -13 55 0 15 9 28 26 30 38 2 12
7 22 11 22 4 0 6 -14 3 -30 -6 -43 21 -80 58 -80 36 0 70 31 70 63 0 27 -34
67 -56 67 -10 0 -13 7 -8 24 8 32 -2 62 -24 71 -35 15 -64 13 -83 -6z"/>
<path d="M3206 7448 c-22 -31 -20 -64 4 -88 21 -21 18 -45 -5 -36 -17 6 -55
-35 -55 -60 0 -17 -5 -19 -34 -16 -26 3 -37 -1 -52 -20 -11 -14 -34 -27 -52
-31 -30 -6 -32 -5 -22 13 15 29 12 46 -14 76 -23 28 -23 28 -4 60 23 39 12 78
-27 96 -30 14 -74 -3 -82 -30 -2 -10 -14 -22 -26 -27 -18 -8 -22 -18 -22 -55
0 -37 4 -47 23 -55 20 -9 22 -15 17 -47 -4 -20 -4 -46 0 -57 7 -24 53 -41 83
-30 19 7 22 5 22 -16 0 -33 26 -55 64 -55 32 0 73 30 59 43 -3 4 8 7 25 7 30
0 72 37 72 64 0 6 15 11 33 12 57 2 107 29 113 64 4 19 13 30 23 30 33 0 61
30 61 65 0 40 -22 65 -57 65 -15 0 -33 10 -45 25 -26 33 -80 35 -102 3z"/>
<path d="M4551 7313 c-26 -32 -20 -57 20 -95 16 -15 29 -33 29 -41 0 -26 37
-50 67 -42 41 10 53 24 53 60 0 31 -25 65 -48 65 -6 0 -9 6 -6 13 2 7 -5 25
-16 40 -29 36 -71 36 -99 0z"/>
<path d="M4764 7315 c-10 -15 -14 -34 -10 -49 3 -14 2 -28 -4 -31 -14 -9 -12
-58 4 -80 32 -45 117 -6 116 54 0 14 2 41 6 59 8 43 -16 72 -62 72 -25 0 -38
-7 -50 -25z"/>
<path d="M4937 7312 c-37 -40 -7 -104 48 -104 55 0 81 54 49 100 -19 28 -74
30 -97 4z"/>
<path d="M531 7291 c-25 -25 -27 -73 -5 -95 25 -25 81 -20 100 9 21 32 11 82
-19 90 -12 4 -30 9 -39 11 -9 3 -26 -4 -37 -15z"/>
<path d="M2676 7284 c-30 -29 -15 -93 24 -107 8 -3 1 -6 -17 -6 -37 -1 -63
-31 -63 -73 0 -31 32 -58 67 -58 50 0 85 80 48 110 -14 11 -12 15 14 31 61 37
45 119 -24 119 -18 0 -41 -7 -49 -16z"/>
<path d="M5190 7262 c-49 -15 -66 -74 -32 -105 42 -38 112 -10 112 45 0 37
-46 71 -80 60z"/>
<path d="M3697 7242 c-25 -27 -22 -78 5 -96 49 -35 108 -7 108 51 0 53 -78 84
-113 45z"/>
<path d="M2384 7232 c-6 -4 -16 -17 -23 -29 -6 -13 -19 -23 -28 -23 -9 0 -22
-8 -29 -17 -10 -15 -15 -16 -25 -5 -36 34 -116 -6 -106 -54 4 -21 1 -24 -29
-24 -34 0 -64 -21 -64 -45 0 -11 -6 -11 -29 -2 -62 23 -112 -35 -80 -92 11
-19 24 -27 52 -29 31 -3 39 1 55 27 14 24 21 27 36 19 17 -9 16 -11 -5 -22
-13 -6 -28 -21 -34 -33 -10 -23 -67 -41 -73 -23 -10 30 -36 40 -101 40 -53 0
-72 -4 -84 -18 -27 -30 -21 -67 15 -96 18 -14 30 -28 26 -31 -3 -3 -17 5 -31
19 -29 29 -54 33 -83 11 -10 -8 -31 -15 -46 -15 -29 0 -58 -32 -58 -63 0 -10
12 -29 26 -44 14 -14 23 -27 21 -29 -2 -3 -10 2 -17 11 -13 16 -57 20 -76 7
-21 -13 -34 -52 -28 -77 7 -29 31 -45 66 -45 13 0 28 -4 33 -9 14 -13 46 -16
73 -7 23 8 47 50 37 66 -3 5 8 16 25 25 24 12 30 22 30 48 0 17 5 39 10 47 7
11 10 6 10 -21 0 -64 67 -93 110 -47 23 25 29 115 8 136 -9 9 -9 12 0 12 7 0
12 -4 12 -9 0 -21 33 -41 66 -41 28 0 38 6 52 30 9 16 24 30 33 30 8 0 28 10
45 23 40 30 37 78 -7 99 l-29 15 25 11 c14 6 25 7 25 2 0 -18 33 -40 61 -40
23 0 29 -4 29 -23 0 -13 -9 -26 -22 -32 -12 -6 -30 -25 -40 -43 -10 -18 -14
-31 -9 -28 5 3 12 -5 15 -19 11 -43 98 -47 111 -5 4 11 20 27 36 35 27 15 35
34 30 75 -1 8 -2 36 -4 63 -2 42 0 47 19 47 43 0 74 76 43 107 -9 9 -6 19 10
39 23 29 22 64 -1 91 -11 14 -66 17 -84 5z"/>
<path d="M5482 7208 c-26 -13 -37 -46 -28 -83 7 -29 46 -42 85 -29 21 8 27 16
29 50 4 56 -37 85 -86 62z"/>
<path d="M5116 7097 c-16 -16 -39 -27 -63 -29 -69 -6 -86 -92 -23 -118 16 -7
36 -10 44 -7 8 3 22 -3 32 -14 30 -33 103 -17 104 24 1 7 3 37 5 68 5 63 -6
84 -47 94 -21 5 -33 1 -52 -18z"/>
<path d="M2796 7088 c-33 -46 -4 -108 49 -108 53 0 87 77 49 114 -24 24 -80
20 -98 -6z"/>
<path d="M1388 7078 c-25 -9 -28 -15 -28 -54 0 -41 3 -46 31 -58 39 -16 66
-10 85 19 25 38 -1 96 -44 101 -10 1 -29 -2 -44 -8z"/>
<path d="M5366 6985 c-57 -57 3 -143 73 -104 36 20 42 80 9 103 -28 20 -62 20
-82 1z"/>
<path d="M5573 6937 c-32 -14 -44 -57 -26 -91 13 -24 19 -27 56 -24 32 2 44 8
54 27 26 54 -30 112 -84 88z"/>
<path d="M5800 6840 c-38 -38 -20 -95 33 -105 22 -4 38 -16 49 -36 31 -54 118
-33 118 29 0 15 -4 32 -8 38 -12 18 -52 36 -68 30 -8 -3 -14 1 -14 9 0 23 -38
55 -65 55 -14 0 -34 -9 -45 -20z"/>
<path d="M1516 6805 c-52 -48 -25 -119 43 -113 28 2 39 9 50 32 17 36 3 69
-37 90 -28 15 -31 14 -56 -9z"/>
<path d="M5549 6783 c-27 -7 -42 -52 -28 -85 25 -61 111 -43 117 24 4 51 -32
77 -89 61z"/>
<path d="M1320 6711 c-23 -56 18 -107 77 -95 32 6 43 25 43 76 0 32 -24 48
-73 48 -29 0 -37 -5 -47 -29z"/>
<path d="M4207 6692 c-10 -10 -17 -32 -17 -49 0 -61 71 -85 109 -36 48 60 -41
142 -92 85z"/>
<path d="M3636 6674 c-9 -8 -16 -31 -16 -49 0 -58 67 -87 105 -45 21 24 24 72
5 94 -16 21 -74 20 -94 0z"/>
<path d="M6080 6638 c-14 -16 -21 -34 -19 -58 3 -62 0 -75 -13 -62 -16 16 -60
15 -81 0 -9 -7 -19 -25 -22 -40 -5 -21 0 -33 24 -59 17 -17 31 -36 31 -40 0
-14 73 -59 95 -59 34 0 93 47 100 79 6 30 24 44 42 33 10 -7 24 -63 23 -94 0
-10 0 -30 0 -45 -1 -131 -1 -131 22 -147 28 -20 57 -20 86 0 12 8 26 13 31 10
5 -4 20 -2 34 3 17 7 37 5 63 -4 22 -8 34 -14 27 -15 -21 0 -43 -31 -43 -60 0
-38 24 -60 65 -60 24 0 39 7 49 22 23 33 20 57 -14 88 -36 33 -27 45 35 45 32
0 42 5 54 27 34 60 -29 121 -89 86 -38 -22 -74 -13 -65 16 4 11 12 45 18 73 9
46 8 55 -8 73 -11 12 -31 20 -51 20 -39 0 -59 -24 -69 -85 -3 -22 -10 -47 -15
-55 -17 -25 -29 7 -17 41 9 23 8 36 -5 62 -10 17 -20 44 -24 60 -3 15 -10 30
-15 32 -4 3 -6 19 -2 36 8 40 -19 69 -63 69 -37 0 -64 -29 -64 -68 0 -14 -4
-21 -11 -16 -6 3 -8 16 -5 28 8 34 -3 62 -30 75 -36 16 -51 14 -74 -11z"/>
<path d="M3014 6555 c-20 -31 -8 -74 27 -94 38 -21 83 3 87 46 5 51 -12 73
-58 73 -31 0 -43 -5 -56 -25z"/>
<path d="M1567 6522 c-37 -40 -9 -112 44 -112 57 0 87 60 53 108 -19 28 -74
30 -97 4z"/>
<path d="M1754 6492 c-15 -10 -34 -47 -34 -66 0 -25 38 -56 68 -56 37 0 62 28
62 68 0 46 -59 79 -96 54z"/>
<path d="M1324 6482 c-20 -13 -36 -54 -30 -78 4 -13 19 -30 34 -38 25 -13 32
-13 59 1 36 17 46 43 32 83 -12 34 -65 52 -95 32z"/>
<path d="M1119 6269 c-15 -15 -20 -29 -16 -52 2 -18 1 -42 -4 -54 -5 -13 -5
-33 0 -44 4 -12 6 -32 3 -45 -4 -22 -4 -22 -24 -2 -29 29 -89 22 -106 -14 -8
-17 -9 -34 -3 -50 8 -22 7 -24 -23 -20 -41 5 -66 -18 -66 -62 0 -45 65 -99
112 -94 45 4 67 43 49 87 -8 17 -20 31 -27 31 -8 0 -14 4 -14 10 0 5 6 7 13 4
22 -8 67 14 77 38 8 21 9 22 10 3 1 -11 1 -35 0 -53 -1 -21 5 -41 17 -54 10
-12 18 -36 19 -59 0 -44 23 -68 65 -69 52 0 79 71 42 112 -18 21 -28 127 -9
108 15 -15 72 -12 86 5 7 8 21 15 30 15 10 0 27 11 37 24 15 18 29 24 55 23
48 -1 68 17 68 63 0 41 -11 54 -53 64 -22 5 -33 1 -55 -21 -19 -19 -35 -26
-55 -24 -16 1 -36 -4 -45 -12 -9 -8 -26 -17 -37 -19 -11 -3 -29 -9 -39 -14
-13 -5 -17 -4 -13 3 4 6 9 44 12 86 6 70 5 76 -17 91 -31 22 -64 20 -89 -5z"/>
<path d="M7230 6273 c-41 -15 -54 -78 -22 -106 54 -49 137 18 98 78 -9 14 -20
25 -25 25 -5 0 -15 2 -23 4 -7 3 -20 2 -28 -1z"/>
<path d="M1710 6129 c-19 -12 -52 -39 -72 -61 -44 -46 -50 -86 -18 -118 11
-11 20 -26 20 -34 0 -8 19 -31 42 -50 37 -32 48 -36 96 -36 78 0 134 34 157
95 10 24 15 54 12 65 -4 17 0 20 28 20 41 0 65 22 65 59 0 61 -62 90 -103 49
l-24 -24 -39 27 c-49 36 -113 38 -164 8z"/>
<path d="M5794 6014 c-100 -66 -98 -192 5 -261 46 -31 102 -30 158 2 51 30 73
68 73 125 0 87 -58 151 -144 158 -43 3 -58 -1 -92 -24z"/>
<path d="M6473 5975 c-30 -21 -31 -78 -3 -102 11 -10 20 -25 20 -34 0 -9 9
-24 20 -34 15 -13 17 -22 10 -36 -15 -28 -12 -64 8 -82 54 -49 137 18 98 78
-9 14 -21 25 -27 25 -5 0 -3 10 5 22 22 32 20 55 -9 84 -14 14 -25 33 -25 43
0 39 -62 61 -97 36z"/>
<path d="M6663 5850 c-54 -22 -35 -112 24 -118 65 -6 97 67 47 107 -29 23 -38
24 -71 11z"/>
<path d="M345 5810 c-21 -24 -24 -72 -5 -94 15 -20 70 -21 95 -2 12 8 18 25
17 47 -2 60 -69 91 -107 49z"/>
<path d="M2427 5792 c-10 -10 -17 -27 -17 -37 0 -18 -1 -18 -13 -1 -9 13 -23
17 -52 14 -32 -2 -42 -8 -53 -30 -18 -38 2 -79 43 -90 36 -9 75 13 75 44 0 20
1 20 18 5 10 -10 24 -17 30 -17 7 0 12 -5 12 -10 0 -14 60 -50 83 -50 10 0 28
11 41 23 17 17 28 21 40 15 23 -13 69 12 80 44 22 63 -65 108 -112 58 -18 -20
-19 -20 -59 15 -46 40 -90 46 -116 17z"/>
<path d="M790 5760 c-25 -25 -26 -72 -2 -93 21 -19 73 -22 89 -6 8 8 13 5 18
-10 3 -11 13 -28 22 -36 14 -15 13 -18 -7 -40 -21 -23 -22 -23 -41 -4 -10 10
-31 19 -45 19 -14 0 -37 9 -51 20 -31 24 -76 26 -97 4 -39 -39 -1 -120 52
-112 18 2 34 -4 49 -19 20 -21 20 -23 4 -23 -31 0 -48 -32 -55 -101 -6 -54 -4
-69 9 -83 9 -9 21 -16 26 -16 5 0 9 -8 9 -18 0 -10 5 -23 10 -28 7 -7 4 -16
-10 -29 -25 -23 -25 -50 1 -109 24 -55 56 -73 97 -54 43 21 40 82 -6 162 -3 5
0 6 6 2 16 -10 62 38 62 64 0 24 -42 70 -64 70 -19 0 -26 20 -14 43 12 24 0
77 -19 84 -11 5 -8 9 13 18 23 9 31 8 46 -7 10 -10 27 -18 39 -18 27 0 110 79
112 108 1 17 7 22 31 22 50 0 77 69 39 102 -46 40 -173 73 -188 49 -9 -15 -25
-14 -25 2 0 21 -44 57 -68 57 -12 0 -31 -9 -42 -20z"/>
<path d="M5257 5738 c-27 -21 -32 -70 -9 -98 19 -24 19 -24 -2 -54 -11 -16
-31 -39 -43 -51 -24 -25 -22 -57 7 -90 15 -18 16 -24 4 -52 -8 -18 -20 -33
-28 -33 -8 0 -16 -7 -20 -15 -4 -12 -10 -10 -30 10 -26 26 -79 34 -91 15 -3
-5 -23 -10 -44 -10 -49 0 -74 -19 -74 -58 0 -36 18 -62 43 -62 12 0 17 -8 17
-29 0 -37 83 -121 119 -121 35 0 67 36 61 68 -14 70 -16 67 34 64 54 -4 79 14
79 58 0 22 6 30 31 39 42 14 40 15 33 -14 -10 -39 19 -75 60 -75 39 0 66 26
66 63 0 32 -24 57 -55 57 -21 0 -23 4 -21 38 1 20 8 49 14 65 12 28 3 69 -17
82 -6 3 -11 17 -11 31 0 13 -9 33 -21 45 -15 15 -18 24 -10 32 18 18 13 65 -9
87 -23 23 -58 26 -83 8z"/>
<path d="M5036 5717 c-13 -9 -17 -23 -14 -52 2 -33 8 -41 31 -49 17 -6 37 -6
55 0 22 8 28 16 30 49 4 44 -14 65 -58 65 -14 0 -34 -6 -44 -13z"/>
<path d="M6726 5684 c-27 -26 -18 -86 16 -102 35 -16 75 -1 88 34 16 42 -7 78
-51 82 -24 2 -42 -3 -53 -14z"/>
<path d="M5402 5673 c-25 -10 -33 -52 -17 -84 15 -28 27 -33 71 -30 15 2 25
-7 34 -29 26 -63 112 -47 118 22 4 47 -29 74 -80 63 -18 -4 -30 -4 -26 0 4 4
1 20 -8 36 -12 23 -21 29 -47 28 -17 0 -38 -3 -45 -6z"/>
<path d="M2717 5652 c-39 -43 -8 -112 49 -112 25 0 64 43 64 71 0 50 -80 78
-113 41z"/>
<path d="M2163 5634 c-14 -22 -15 -31 -5 -56 10 -26 8 -34 -8 -56 -28 -35 -26
-76 5 -100 15 -12 34 -18 45 -15 16 4 20 0 20 -20 0 -86 77 -140 125 -87 40
44 -13 162 -66 145 -16 -5 -18 -2 -13 23 3 16 1 40 -6 52 -10 19 -10 24 4 32
21 12 21 71 0 92 -26 26 -81 20 -101 -10z"/>
<path d="M2367 5622 c-32 -35 -16 -95 28 -106 15 -4 30 -17 35 -31 20 -53 100
-52 120 1 13 34 -7 76 -39 84 -14 3 -32 19 -41 35 -21 38 -76 47 -103 17z"/>
<path d="M6867 5502 c-9 -10 -17 -32 -17 -48 -1 -37 -24 -68 -45 -60 -9 3 -29
-1 -46 -9 -23 -13 -29 -22 -29 -50 0 -18 7 -41 16 -49 22 -22 80 -21 96 2 8
12 25 19 46 19 37 0 61 25 62 65 0 14 7 39 17 55 14 25 14 32 2 58 -18 38 -75
47 -102 17z"/>
<path d="M2770 5480 c-52 -13 -52 -106 0 -120 59 -16 104 34 79 85 -16 32 -43
44 -79 35z"/>
<path d="M2566 5465 c-38 -39 -19 -106 33 -113 65 -10 101 83 47 120 -19 13
-64 9 -80 -7z"/>
<path d="M5600 5470 c-49 -12 -53 -104 -5 -116 40 -10 75 4 86 34 20 50 -25
96 -81 82z"/>
<path d="M955 5430 c-11 -4 -27 -20 -35 -35 -12 -23 -12 -30 0 -52 21 -37 64
-49 96 -28 22 14 25 22 22 65 -2 26 -6 46 -10 44 -3 -2 -17 0 -30 5 -12 4 -32
5 -43 1z"/>
<path d="M7057 5422 c-21 -23 -22 -51 -1 -80 23 -34 83 -27 104 11 13 24 13
30 0 55 -20 35 -77 43 -103 14z"/>
<path d="M5922 5344 c-15 -10 -22 -25 -22 -49 0 -63 71 -87 110 -38 49 63 -22
133 -88 87z"/>
<path d="M2705 5282 c-25 -5 -45 -30 -45 -57 0 -13 -10 -26 -25 -33 -51 -24
-34 -112 24 -120 32 -5 71 24 71 52 0 14 10 30 25 40 64 42 26 133 -50 118z"/>
<path d="M6867 5272 c-21 -22 -22 -62 -3 -87 15 -21 67 -25 90 -5 22 17 21 79
-1 96 -26 19 -67 17 -86 -4z"/>
<path d="M7045 5265 c-45 -44 -21 -105 40 -105 62 0 87 71 39 109 -34 27 -50
26 -79 -4z"/>
<path d="M7171 5201 c-29 -53 2 -105 60 -99 46 4 69 48 48 87 -20 35 -92 43
-108 12z"/>
<path d="M592 5180 c-34 -14 -47 -51 -31 -86 11 -23 22 -30 52 -32 49 -4 67
11 67 58 0 52 -39 79 -88 60z"/>
<path d="M2336 5154 c-51 -51 19 -139 79 -100 23 15 26 15 46 -5 53 -53 137
22 95 86 -19 29 -75 35 -96 10 -11 -14 -14 -13 -27 5 -17 25 -74 27 -97 4z"/>
<path d="M6893 5085 c-14 -10 -24 -31 -28 -58 -14 -93 30 -154 95 -130 24 9
30 9 30 -2 0 -8 -4 -17 -10 -20 -5 -3 -10 -21 -10 -40 0 -25 8 -40 31 -59 17
-14 35 -26 40 -26 20 0 95 34 107 48 20 26 14 69 -12 89 -19 15 -21 21 -10 31
19 17 18 76 -1 92 -8 7 -29 13 -46 14 -23 1 -34 8 -40 23 -5 15 -24 26 -62 37
-66 19 -58 19 -84 1z"/>
<path d="M4920 5010 c-28 -28 -25 -64 6 -89 34 -26 54 -26 82 -1 26 24 28 57
6 88 -19 28 -67 29 -94 2z"/>
<path d="M585 4887 c-39 -22 -40 -24 -48 -92 -8 -66 -27 -114 -27 -69 0 48
-80 73 -113 36 -39 -43 5 -121 60 -107 18 4 25 0 33 -19 18 -50 111 -74 143
-38 19 20 23 77 7 87 -7 4 -5 14 5 28 8 12 15 30 15 40 0 11 11 28 25 39 33
26 35 80 3 102 -30 22 -56 20 -103 -7z"/>
<path d="M2366 4734 c-24 -23 -20 -77 7 -100 45 -41 116 4 101 65 -11 48 -75
68 -108 35z"/>
<path d="M706 4694 c-24 -23 -21 -80 5 -98 l21 -14 -23 -4 c-58 -8 -63 -102
-7 -122 60 -21 108 38 76 93 -13 24 -12 28 15 54 24 22 28 32 23 55 -4 15 -14
33 -23 40 -23 17 -68 15 -87 -4z"/>
<path d="M6976 4688 c-28 -40 -20 -75 22 -97 57 -30 114 39 78 94 -22 33 -78
35 -100 3z"/>
<path d="M7254 4625 c-20 -20 -24 -32 -19 -53 10 -40 24 -52 61 -52 40 0 64
22 64 60 0 27 -22 60 -40 60 -5 0 -15 3 -24 6 -9 3 -26 -5 -42 -21z"/>
<path d="M523 4560 c-12 -5 -25 -15 -30 -22 -4 -8 -25 -14 -47 -13 -33 0 -43
-5 -55 -27 -19 -33 -6 -78 25 -92 12 -5 26 -23 32 -39 11 -28 10 -28 -7 -13
-21 19 -74 21 -90 3 -23 -28 -24 -71 -2 -91 12 -11 21 -31 21 -48 0 -56 60
-86 108 -52 29 20 30 77 2 101 -11 10 -20 27 -20 40 0 19 4 21 35 16 40 -6 75
16 75 49 0 13 7 18 28 18 16 0 37 9 47 20 29 32 22 67 -21 109 -44 43 -69 53
-101 41z"/>
<path d="M4079 4433 c-27 -7 -42 -52 -28 -85 25 -61 111 -43 117 24 4 51 -32
77 -89 61z"/>
<path d="M7187 4422 c-25 -27 -22 -78 5 -96 12 -9 32 -16 43 -16 15 0 25 -10
33 -34 9 -23 22 -38 40 -44 27 -9 27 -9 5 -16 -13 -4 -26 -18 -29 -32 -3 -13
-8 -24 -11 -24 -12 0 -42 47 -43 66 0 28 -30 54 -61 54 -42 0 -60 -21 -65 -77
-5 -48 -4 -52 33 -87 33 -32 43 -36 75 -33 30 4 38 1 43 -13 7 -23 38 -34 69
-26 25 6 86 94 86 122 -1 24 -19 48 -45 58 l-20 7 20 12 c11 7 33 16 50 22 16
5 36 22 45 38 13 24 13 30 0 55 -18 32 -72 42 -98 19 -10 -8 -29 -17 -45 -19
-23 -5 -27 -2 -22 13 8 24 -36 69 -68 69 -13 0 -31 -8 -40 -18z"/>
<path d="M596 4208 c-21 -30 -20 -50 5 -82 23 -29 54 -33 87 -10 26 18 30 74
6 98 -24 24 -80 20 -98 -6z"/>
<path d="M438 4102 c-21 -10 -45 -30 -54 -47 -8 -16 -22 -42 -31 -56 -33 -52
11 -110 72 -95 17 4 31 18 41 41 8 19 19 35 24 35 6 0 13 0 18 0 4 1 9 -16 12
-36 3 -25 14 -44 31 -57 24 -17 30 -18 55 -6 35 17 53 62 36 89 -7 11 -12 33
-12 48 0 34 -27 62 -60 62 -12 0 -28 7 -34 14 -17 23 -58 26 -98 8z"/>
<path d="M5110 4072 c-31 -10 -50 -36 -50 -68 0 -68 85 -82 120 -21 13 24 13
30 0 53 -16 29 -46 44 -70 36z"/>
<path d="M7027 4032 c-19 -21 -22 -54 -7 -83 8 -14 21 -19 48 -19 47 0 62 14
62 60 0 20 -5 41 -12 48 -18 18 -73 14 -91 -6z"/>
<path d="M4488 4013 c7 -3 16 -2 19 1 4 3 -2 6 -13 5 -11 0 -14 -3 -6 -6z"/>
<path d="M7295 3966 c-27 -20 -24 -74 5 -98 42 -34 100 -4 100 52 0 51 -62 78
-105 46z"/>
<path d="M373 3748 c-6 -7 -20 -34 -33 -60 -22 -45 -22 -48 -6 -73 38 -58 87
-46 121 31 25 57 23 85 -9 106 -18 12 -63 9 -73 -4z m65 -14 c21 -15 29 -44
15 -57 -3 -4 -14 0 -24 9 -9 8 -26 16 -38 17 -25 2 -28 22 -3 36 23 14 24 14
50 -5z m-12 -69 c27 -41 -39 -88 -74 -53 -17 17 -15 44 4 63 21 21 53 16 70
-10z"/>
<path d="M566 3738 c-25 -36 -20 -67 14 -86 35 -20 36 -23 10 -47 -41 -37 -14
-105 43 -105 19 0 35 12 62 46 19 26 35 54 35 63 0 22 -28 61 -44 61 -8 0 -13
13 -13 31 0 57 -76 82 -107 37z m76 -5 c24 -22 23 -48 -5 -65 -33 -23 -67 -7
-67 31 0 45 39 64 72 34z m49 -83 c12 -7 19 -21 19 -40 0 -35 -16 -48 -25 -20
-4 12 -18 23 -35 27 -31 6 -32 28 -2 36 10 3 18 5 20 6 2 0 12 -4 23 -9z m-27
-56 c23 -23 20 -51 -8 -69 -45 -30 -91 16 -61 61 18 28 47 31 69 8z"/>
<path d="M7354 3743 c4 -8 1 -13 -9 -13 -23 0 -60 -32 -60 -50 0 -8 -4 -18
-10 -22 -6 -5 -5 -8 4 -8 7 0 22 -11 33 -25 27 -34 68 -33 99 3 27 31 34 52
19 52 -5 0 -10 5 -10 11 0 6 -9 22 -20 36 -11 14 -20 20 -20 13 0 -10 -4 -9
-17 1 -11 10 -14 10 -9 2z"/>
<path d="M1467 3702 c-21 -23 -22 -66 -1 -86 36 -37 104 -7 104 46 0 51 -69
78 -103 40z m62 -2 c25 -13 33 -37 21 -59 -13 -25 -45 -32 -69 -14 -27 19 -27
48 1 67 26 19 24 19 47 6z"/>
<path d="M7172 3661 c2 -18 -3 -24 -11 -13 -5 8 -8 -11 -7 -47 0 -33 3 -58 7
-56 3 3 14 -2 24 -9 13 -9 15 -15 7 -20 -7 -4 -12 -3 -12 1 0 5 -16 8 -37 8
-41 -2 -73 -33 -73 -71 0 -27 40 -74 64 -74 20 0 20 -10 2 -35 -14 -19 -15
-19 -36 0 -30 28 -66 26 -95 -5 -22 -23 -23 -30 -15 -62 7 -24 19 -39 38 -47
15 -6 34 -24 43 -40 11 -18 28 -30 50 -35 26 -5 31 -9 19 -16 -9 -6 -16 -6
-18 0 -2 6 -8 10 -13 10 -4 0 -6 -6 -3 -14 3 -8 1 -17 -5 -21 -6 -3 -11 -26
-11 -51 0 -46 -6 -53 -30 -31 -12 10 -12 9 0 -8 8 -11 16 -22 17 -24 1 -2 10
2 19 10 16 13 16 12 3 -11 -7 -14 -14 -36 -14 -50 -3 -52 -5 -60 -20 -60 -20
0 -67 -49 -59 -62 3 -5 -1 -24 -10 -43 -19 -39 -9 -77 24 -95 11 -6 18 -15 15
-20 -3 -5 -1 -12 5 -15 6 -4 9 -1 8 6 -4 17 52 45 61 31 3 -6 7 7 7 29 1 21 8
46 15 55 8 9 14 24 14 32 0 9 13 19 32 24 18 5 34 17 38 27 3 11 21 28 39 39
39 23 50 59 30 98 -20 38 -18 47 16 66 24 14 30 24 30 51 0 22 -8 41 -21 53
-12 10 -27 31 -35 46 -8 16 -21 28 -29 28 -8 0 -15 6 -15 13 0 8 -3 8 -9 -2
-8 -12 -12 -12 -25 -2 -20 17 -9 41 18 41 35 0 65 27 61 55 -1 14 1 25 6 25 4
0 -4 13 -19 28 -15 15 -30 27 -34 25 -3 -2 -4 6 -1 17 3 11 -2 31 -11 45 -10
14 -12 25 -6 25 6 0 8 5 5 10 -3 6 -1 10 4 10 6 0 11 -13 11 -30 0 -35 23 -61
81 -90 35 -19 45 -20 71 -9 16 6 35 24 43 40 18 33 19 43 5 34 -10 -6 -15 13
-12 48 1 12 -2 16 -11 10 -14 -9 -50 -5 -57 7 -3 4 -21 15 -40 24 -19 9 -26
14 -16 11 15 -4 17 -3 8 8 -7 8 -8 18 -4 22 4 5 1 5 -5 1 -9 -5 -13 0 -13 12
0 11 -6 25 -13 31 -14 11 -96 22 -95 12z m-11 -352 c26 -26 20 -33 -15 -18
-26 12 -31 20 -19 32 9 10 11 9 34 -14z"/>
<path d="M3902 3565 c0 -16 2 -22 5 -12 2 9 2 23 0 30 -3 6 -5 -1 -5 -18z"/>
<path d="M517 3452 c-19 -20 -23 -67 -7 -77 17 -10 11 -23 -14 -29 -29 -7 -79
-87 -74 -118 2 -11 15 -30 30 -41 23 -17 31 -19 53 -9 14 6 30 23 37 37 6 14
19 25 29 25 10 0 26 14 34 31 15 28 15 33 0 55 -14 22 -14 26 0 40 21 21 19
67 -3 87 -24 22 -65 21 -85 -1z m73 -12 c25 -25 25 -35 1 -59 -40 -40 -97 8
-66 55 19 29 38 31 65 4z m-8 -107 c22 -20 23 -46 3 -63 -13 -11 -15 -8 -15
15 0 16 -7 37 -17 47 -21 24 3 25 29 1z m-38 -19 c19 -18 20 -28 6 -55 -21
-39 -90 -16 -90 30 0 16 30 41 50 41 10 0 26 -7 34 -16z m-31 -94 c16 0 17 -3
7 -15 -15 -18 -51 -20 -68 -3 -7 7 -12 23 -12 36 l0 23 26 -20 c15 -12 36 -21
47 -21z"/>
<path d="M7390 3390 c-11 -8 -7 -9 15 -4 37 8 45 14 19 14 -10 0 -26 -5 -34
-10z"/>
<path d="M5126 3373 c3 -13 -20 -36 -28 -27 -3 2 -8 -2 -12 -11 -3 -9 -2 -13
3 -10 6 3 9 -8 9 -24 -1 -42 18 -61 61 -61 47 0 59 9 71 51 9 31 8 36 -17 56
-16 13 -40 23 -55 23 -14 0 -28 3 -31 8 -2 4 -2 2 -1 -5z"/>
<path d="M6698 3362 c-34 -4 -59 -42 -56 -86 2 -19 4 -33 6 -31 2 2 15 -3 29
-10 14 -7 36 -11 49 -9 13 2 24 0 24 -6 0 -6 8 -5 20 2 11 7 20 17 20 22 0 6
-5 5 -12 -2 -19 -19 -33 -14 -15 6 29 32 17 92 -21 110 -9 4 -29 6 -44 4z"/>
<path d="M7310 3360 c-12 -8 -11 -10 8 -10 12 0 22 5 22 10 0 13 -11 13 -30 0z"/>
<path d="M7387 3359 c7 -7 15 -10 18 -7 3 3 -2 9 -12 12 -14 6 -15 5 -6 -5z"/>
<path d="M609 3249 c-13 -13 -19 -29 -17 -44 4 -19 0 -24 -24 -29 -59 -12 -60
-94 -2 -116 20 -8 32 -7 51 5 14 9 32 13 44 10 33 -11 69 20 69 60 0 18 -4 36
-9 39 -4 3 -6 16 -4 28 6 30 -30 68 -62 68 -14 0 -34 -9 -46 -21z m79 -11 c20
-20 14 -35 -15 -41 -16 -3 -36 -9 -45 -12 -14 -5 -18 -2 -18 13 0 37 11 52 39
52 15 0 32 -5 39 -12z m20 -70 c21 -21 14 -57 -14 -70 -31 -14 -57 -1 -62 31
-7 42 46 69 76 39z m-95 -45 c7 -44 3 -53 -27 -53 -28 0 -46 18 -46 45 0 27
18 45 46 45 17 0 23 -8 27 -37z"/>
<path d="M774 3262 c-34 -23 -36 -62 -5 -112 6 -8 12 -28 16 -43 7 -36 45 -55
80 -39 33 15 43 58 22 95 -10 16 -17 36 -17 46 0 41 -63 76 -96 53z m64 -24
c21 -21 12 -42 -24 -59 -33 -16 -35 -16 -44 1 -20 38 -4 70 35 70 12 0 26 -5
33 -12z m42 -89 c14 -26 -11 -69 -40 -69 -20 0 -50 25 -50 41 0 47 69 69 90
28z"/>
<path d="M3901 3254 c0 -11 3 -14 6 -6 3 7 2 16 -1 19 -3 4 -6 -2 -5 -13z"/>
<path d="M6971 3254 c0 -11 3 -14 6 -6 3 7 2 16 -1 19 -3 4 -6 -2 -5 -13z"/>
<path d="M3516 3228 c-22 -30 -20 -61 4 -83 42 -38 100 -12 100 45 0 55 -74
82 -104 38z m84 -17 c14 -27 13 -37 -6 -55 -23 -23 -51 -20 -69 8 -13 19 -14
29 -5 45 14 28 65 29 80 2z"/>
<path d="M2876 3184 c-38 -37 -5 -104 50 -104 47 0 73 67 41 108 -13 17 -73
15 -91 -4z m78 -10 c32 -31 7 -78 -38 -72 -36 4 -51 37 -30 67 18 25 46 27 68
5z"/>
<path d="M7060 3154 c0 -3 7 -12 15 -20 13 -14 15 -13 15 5 0 12 -6 21 -15 21
-8 0 -15 -3 -15 -6z"/>
<path d="M7286 3027 c3 -10 9 -15 12 -12 3 3 0 11 -7 18 -10 9 -11 8 -5 -6z"/>
<path d="M791 2999 c-11 -18 -22 -26 -25 -20 -11 18 -62 13 -80 -8 -14 -16
-16 -30 -11 -75 7 -55 7 -56 -19 -56 -70 0 -90 -100 -24 -123 9 -3 6 -10 -9
-23 -12 -10 -24 -28 -27 -40 -8 -27 28 -74 58 -74 28 0 66 35 66 60 0 17 3 18
25 8 14 -6 25 -19 25 -28 0 -30 36 -53 72 -46 18 3 46 7 62 9 29 3 66 38 66
62 0 7 -10 25 -21 40 -22 27 -46 30 -91 11 -12 -6 -17 -2 -20 15 -8 55 -98 63
-120 11 -7 -15 -13 -29 -14 -31 -2 -1 -12 4 -24 12 l-21 14 21 6 c13 3 22 16
26 36 7 36 6 35 63 15 37 -12 49 -13 68 -3 13 7 23 16 23 21 0 5 12 0 26 -11
15 -12 34 -21 44 -21 23 0 60 42 60 67 0 22 -43 63 -65 63 -7 0 -24 -9 -39
-21 -14 -11 -26 -16 -26 -11 0 5 -16 17 -35 26 -19 9 -35 24 -35 33 0 13 3 14
12 5 7 -7 27 -12 45 -12 28 0 36 5 50 34 15 32 15 37 -1 60 -25 39 -80 37
-105 -5z m83 5 c20 -20 20 -48 0 -69 -17 -16 -53 -12 -66 9 -31 47 27 100 66
60z m-114 -44 c25 -25 25 -42 -1 -66 -19 -17 -23 -17 -47 -3 -34 19 -39 42
-13 68 26 26 36 26 61 1z m-38 -120 c-3 -25 -7 -28 -18 -19 -20 17 -18 49 4
49 15 0 18 -6 14 -30z m31 15 c-3 -9 -8 -14 -10 -11 -3 3 -2 9 2 15 9 16 15
13 8 -4z m85 3 c7 -7 12 -21 12 -33 0 -47 -62 -63 -81 -21 -22 47 33 90 69 54z
m120 0 c28 -28 7 -78 -33 -78 -27 0 -45 18 -45 45 0 27 18 45 45 45 12 0 26
-5 33 -12z m-270 -50 c29 -29 7 -78 -35 -78 -32 0 -58 42 -43 69 12 24 58 29
78 9z m127 -108 c0 -43 -24 -59 -59 -40 -32 17 -34 53 -5 74 33 23 64 6 64
-34z m-127 -22 c7 -7 12 -25 12 -40 0 -50 -81 -51 -88 -1 -6 40 48 69 76 41z
m250 0 c21 -21 14 -57 -14 -70 -31 -14 -57 -1 -62 31 -7 42 46 69 76 39z m-85
-66 c18 -22 -7 -38 -38 -24 -31 14 -32 38 -2 62 22 18 22 18 25 -3 2 -12 9
-28 15 -35z"/>
<path d="M7311 3004 c0 -11 3 -14 6 -6 3 7 2 16 -1 19 -3 4 -6 -2 -5 -13z"/>
<path d="M2330 2970 c-11 -11 -20 -29 -20 -40 0 -25 42 -70 65 -70 20 0 65 44
65 63 0 8 -9 26 -21 41 -25 31 -61 34 -89 6z m78 -12 c28 -28 7 -78 -33 -78
-27 0 -45 18 -45 45 0 27 18 45 45 45 12 0 26 -5 33 -12z"/>
<path d="M6910 2977 c-26 -13 -43 -65 -33 -105 11 -45 82 -57 115 -19 15 17
19 32 15 65 -3 24 -9 48 -13 52 -17 16 -59 20 -84 7z"/>
<path d="M5108 2873 c-10 -2 -15 -10 -11 -19 3 -9 0 -14 -7 -12 -7 2 -15 -3
-18 -11 -3 -8 0 -11 7 -7 15 10 14 -17 -1 -33 -11 -10 -10 -11 5 -6 9 4 17 2
17 -4 0 -18 -42 -91 -49 -87 -4 3 -7 -16 -7 -42 -1 -45 13 -72 36 -72 6 0 8
-5 5 -10 -4 -6 11 -3 33 5 21 9 43 15 48 14 25 -4 53 16 59 42 4 16 10 29 14
29 12 0 31 48 25 64 -4 10 6 15 33 20 21 3 43 7 48 8 8 1 10 33 6 80 -1 4 -12
15 -26 24 -32 21 -95 12 -96 -14 0 -14 -2 -14 -6 -2 -12 35 -59 48 -115 33z"/>
<path d="M7230 2865 c0 -8 2 -15 4 -15 2 0 6 7 10 15 3 8 1 15 -4 15 -6 0 -10
-7 -10 -15z"/>
<path d="M2552 2854 c-23 -16 -32 -77 -12 -89 6 -4 0 -15 -15 -27 -25 -19 -33
-60 -17 -84 20 -31 51 -35 99 -13 27 12 51 27 55 33 13 19 9 63 -6 75 -10 8
-13 23 -9 45 4 26 0 39 -16 55 -25 25 -49 27 -79 5z m62 -10 c9 -4 16 -18 16
-34 0 -32 -3 -34 -43 -44 -22 -5 -29 -2 -38 18 -21 45 16 79 65 60z m24 -100
c26 -18 28 -41 5 -66 -22 -24 -49 -23 -67 4 -20 29 -20 34 4 58 24 24 29 24
58 4z m-88 -36 c0 -12 7 -30 17 -40 20 -22 12 -32 -20 -24 -28 7 -38 31 -26
64 11 28 29 29 29 0z"/>
<path d="M4784 2859 c-48 -17 -62 -76 -26 -111 23 -23 64 -27 88 -7 61 51 11
146 -62 118z"/>
<path d="M482 2789 c-12 -5 -27 -20 -34 -34 -10 -22 -8 -30 9 -53 25 -34 65
-40 92 -13 25 25 27 49 6 78 -18 25 -43 33 -73 22z m49 -19 c37 -20 18 -80
-26 -80 -42 0 -59 44 -29 74 18 19 28 20 55 6z"/>
<path d="M2720 2780 c-21 -21 -25 -46 -11 -69 7 -10 3 -23 -10 -39 -23 -30
-24 -50 -3 -80 15 -22 47 -28 79 -16 23 9 36 49 26 77 -7 17 -4 29 10 46 10
13 19 32 19 42 0 27 -35 59 -65 59 -14 0 -34 -9 -45 -20z m86 -25 c12 -49 -17
-77 -62 -57 -15 8 -24 20 -24 35 0 31 18 47 52 47 21 0 29 -6 34 -25z m-36
-93 c45 -36 1 -99 -50 -72 -25 14 -27 65 -2 79 23 14 27 14 52 -7z"/>
<path d="M5338 2733 c7 -3 16 -2 19 1 4 3 -2 6 -13 5 -11 0 -14 -3 -6 -6z"/>
<path d="M3069 2709 c-15 -15 -19 -28 -14 -48 8 -37 -14 -56 -52 -44 -40 13
-61 6 -78 -28 -9 -16 -21 -29 -29 -29 -20 0 -46 -34 -46 -62 0 -27 27 -58 51
-58 8 0 20 -9 27 -20 7 -11 22 -20 34 -20 20 0 20 -1 5 -18 -36 -40 -9 -102
45 -102 70 0 77 101 9 122 -10 3 -3 13 22 32 20 16 37 37 37 47 0 11 11 24 25
31 14 6 25 16 25 21 0 6 10 1 23 -11 17 -16 36 -22 70 -22 52 0 61 -9 59 -57
-1 -21 6 -41 18 -53 23 -23 72 -26 89 -7 21 26 28 90 14 137 -14 48 -35 70
-67 70 -11 0 -27 6 -35 14 -24 20 -115 28 -137 11 -31 -24 -39 -17 -10 10 30
28 33 51 10 83 -20 28 -67 29 -95 1z m72 1 c26 -14 26 -66 0 -80 -49 -26 -95
35 -55 74 18 19 28 20 55 6z m-127 -121 c21 -31 2 -69 -35 -69 -43 0 -63 45
-33 74 22 22 50 20 68 -5z m104 9 c18 -18 15 -42 -7 -62 -19 -17 -21 -17 -45
1 -24 17 -34 52 -19 66 11 11 58 8 71 -5z m118 -17 c16 -31 8 -50 -24 -58 -49
-12 -81 37 -46 71 22 23 56 16 70 -13z m57 12 c4 -2 0 -14 -8 -26 -8 -12 -15
-29 -15 -39 0 -10 -4 -18 -8 -18 -5 0 -8 22 -8 49 1 48 5 52 39 34z m75 -35
c19 -19 14 -28 -17 -28 -17 0 -33 -4 -36 -10 -10 -16 -25 -11 -25 8 0 24 19
42 45 42 12 0 26 -5 33 -12z m-443 -25 c9 -13 9 -22 -2 -45 -16 -32 -38 -36
-51 -10 -11 21 -5 43 16 60 20 16 22 15 37 -5z m145 -36 c0 -4 -5 -18 -11 -29
-11 -20 -12 -20 -25 12 -11 26 -12 36 -2 47 10 13 14 12 25 -3 7 -10 13 -22
13 -27z m311 13 c21 -12 25 -50 7 -68 -17 -17 -65 -15 -72 4 -21 55 15 90 65
64z m-380 -10 c26 -15 26 -66 -1 -80 -48 -26 -91 30 -55 70 21 23 29 24 56 10z
m358 -88 c21 3 28 1 24 -9 -12 -32 -83 -21 -83 14 0 13 3 13 15 3 8 -7 28 -10
44 -8z m-317 -39 c23 -21 23 -45 -1 -67 -35 -32 -94 12 -71 54 17 32 45 37 72
13z"/>
<path d="M3360 2710 c-36 -36 -21 -89 30 -105 43 -14 91 45 70 85 -22 42 -69
51 -100 20z m80 -20 c15 -29 3 -59 -26 -66 -31 -8 -54 11 -54 46 0 34 6 40 41
40 18 0 32 -7 39 -20z"/>
<path d="M4541 2688 c-12 -10 -21 -25 -21 -33 0 -8 -5 -15 -12 -15 -9 0 -9 -3
0 -12 9 -9 6 -20 -10 -47 -12 -19 -16 -31 -10 -27 7 4 12 1 12 -9 0 -10 -5
-14 -12 -9 -7 3 1 -5 17 -20 17 -14 34 -25 38 -26 5 0 6 -4 2 -10 -3 -5 7 -3
22 5 15 8 28 13 30 12 1 -2 4 -29 5 -60 1 -31 6 -51 10 -44 6 9 8 9 8 0 0 -7
9 -22 21 -34 17 -17 18 -23 9 -32 -10 -9 -11 -9 -6 3 4 8 -1 5 -12 -7 -11 -12
-23 -19 -27 -15 -5 4 -5 1 -1 -6 5 -8 0 -22 -12 -35 -17 -18 -41 -109 -24 -92
3 3 14 -2 23 -11 21 -19 87 -14 100 8 5 7 12 13 16 14 4 0 15 4 23 7 8 4 29 3
45 -1 31 -9 84 3 86 19 1 5 2 14 3 19 0 6 6 14 13 18 6 4 17 21 23 37 11 28
13 28 20 10 8 -17 9 -16 9 8 1 18 -3 26 -10 22 -6 -4 -13 2 -16 13 -3 11 -12
23 -20 26 -8 3 -11 10 -8 16 3 6 -1 7 -10 4 -8 -4 -22 -1 -29 5 -10 8 -16 9
-21 1 -9 -15 -22 -12 -29 5 -3 9 3 24 14 35 21 21 28 84 10 95 -5 3 -10 24
-10 45 0 28 -6 43 -23 57 -13 10 -22 24 -19 31 5 16 -10 16 -27 0 -11 -11 -13
-10 -8 4 3 10 2 20 -3 23 -6 4 -10 -4 -11 -17 0 -16 -2 -19 -7 -8 -8 17 -32
25 -32 10 0 -5 6 -10 13 -10 8 0 7 -4 -3 -10 -19 -12 -33 -13 -26 -1 10 16
-19 42 -56 50 -30 7 -41 5 -57 -11z m112 -128 c3 -11 0 -20 -6 -21 -7 -1 -1
-5 13 -9 l25 -8 -25 -1 c-15 -1 -31 -6 -38 -13 -16 -16 -15 -6 2 28 8 15 13
31 10 36 -3 4 -1 8 4 8 5 0 12 -9 15 -20z"/>
<path d="M4495 2670 c-3 -5 -1 -10 4 -10 6 0 11 5 11 10 0 6 -2 10 -4 10 -3 0
-8 -4 -11 -10z"/>
<path d="M7065 2670 c-3 -5 -1 -10 4 -10 6 0 11 5 11 10 0 6 -2 10 -4 10 -3 0
-8 -4 -11 -10z"/>
<path d="M3994 2663 c5 -9 -1 -13 -18 -13 -37 0 -78 -21 -72 -37 4 -9 1 -11
-5 -7 -8 4 -9 -1 -4 -17 4 -13 8 -28 9 -34 0 -5 10 -17 21 -26 11 -10 16 -21
11 -26 -5 -4 -11 -2 -13 5 -3 6 -8 12 -12 12 -4 0 -8 -6 -8 -12 -1 -18 -32
-86 -33 -73 -3 22 -19 -32 -19 -65 -1 -46 8 -58 46 -66 26 -5 37 -1 59 21 24
24 26 25 21 6 -3 -13 -1 -19 5 -15 5 4 7 20 4 36 -3 17 -2 27 4 23 5 -3 14 12
21 34 10 34 9 44 -4 64 -14 21 -14 27 -2 43 12 16 14 17 15 3 0 -9 9 -27 19
-41 20 -25 62 -31 83 -10 17 17 38 15 38 -3 0 -35 91 -50 135 -21 27 18 70 22
60 6 -3 -6 1 -7 10 -3 11 4 13 8 5 13 -8 5 -6 11 5 20 18 15 18 110 0 103 -6
-2 -22 8 -35 22 -30 32 -93 35 -112 5 -7 -11 -20 -20 -28 -20 -12 0 -12 -2 -2
-9 11 -7 10 -10 -3 -15 -24 -9 -25 -8 -25 18 0 30 -46 70 -69 60 -42 -17 -81
-22 -81 -9 0 7 -8 19 -17 26 -11 10 -14 10 -9 2z"/>
<path d="M4770 2646 c0 -2 7 -7 16 -10 8 -3 12 -2 9 4 -6 10 -25 14 -25 6z"/>
<path d="M3735 2605 c-14 -13 -25 -31 -25 -38 0 -15 -20 -27 -46 -27 -8 0 -14
6 -14 13 0 20 -33 47 -56 47 -50 0 -81 -57 -55 -100 7 -10 4 -18 -10 -28 -19
-13 -25 -46 -13 -77 11 -27 52 -37 85 -21 33 16 36 11 13 -22 -9 -13 -14 -32
-11 -42 4 -16 1 -18 -24 -13 -37 7 -69 -19 -69 -57 0 -40 22 -63 60 -63 37 0
60 23 60 60 0 20 5 23 35 23 39 0 71 36 62 70 -3 10 1 24 9 31 8 6 14 22 14
35 0 32 23 104 33 104 14 0 57 49 57 65 0 9 -11 27 -25 40 -13 14 -31 25 -40
25 -9 0 -27 -11 -40 -25z m75 -9 c15 -19 9 -56 -12 -70 -24 -14 -68 11 -68 39
0 41 53 62 80 31z m-178 -41 c9 -21 8 -28 -7 -45 -35 -39 -93 -1 -74 48 12 33
65 31 81 -3z m112 -44 c17 -18 13 -49 -8 -63 -21 -14 -55 -8 -66 11 -14 27
-13 37 6 55 21 21 47 20 68 -3z m-82 -68 c16 -19 -7 -16 -26 3 -19 19 -19 19
-3 45 11 19 12 19 15 -8 2 -15 8 -34 14 -40z m-52 6 c14 -26 -11 -69 -40 -69
-20 0 -50 25 -50 41 0 47 69 69 90 28z m130 -47 c0 -26 -20 -42 -51 -42 -25 0
-39 15 -39 43 0 7 19 13 45 15 38 2 45 0 45 -16z m-52 -59 c13 -3 22 -13 22
-23 0 -22 -26 -50 -45 -50 -17 0 -45 27 -45 45 0 29 13 46 29 39 9 -3 26 -9
39 -11z m-76 -88 c10 -22 9 -29 -9 -47 -41 -40 -100 2 -73 52 16 30 67 27 82
-5z"/>
<path d="M6784 2604 c-16 -8 -32 -21 -36 -27 -13 -20 -9 -64 7 -77 16 -13 20
-40 7 -40 -20 0 -35 -61 -36 -152 -2 -53 1 -95 6 -92 4 3 17 0 29 -7 17 -9 19
-13 8 -20 -21 -13 3 -11 34 4 15 6 27 16 27 20 0 5 5 5 10 2 6 -3 10 1 10 10
0 13 2 14 14 3 8 -7 12 -16 9 -20 -2 -5 1 -8 8 -8 8 0 8 -5 -2 -17 -11 -15
-11 -16 1 -5 8 6 29 12 47 12 20 0 33 -5 33 -12 1 -21 32 54 35 83 2 20 -6 31
-34 50 -48 32 -52 39 -46 72 3 18 -1 34 -11 44 -8 9 -13 22 -10 30 3 8 1 11
-4 8 -6 -4 -19 -3 -31 0 -20 7 -20 8 -3 27 18 19 29 103 13 93 -4 -3 -10 -1
-14 5 -14 23 -42 29 -71 14z"/>
<path d="M7295 2566 c-16 -13 -34 -22 -39 -19 -4 3 -5 -4 -1 -16 4 -13 1 -28
-6 -37 -6 -8 -9 -17 -5 -21 3 -3 6 0 7 8 0 8 4 4 9 -9 5 -12 21 -28 36 -34 22
-10 32 -9 62 7 29 16 36 26 37 50 0 29 -33 75 -54 75 -5 0 -11 4 -13 10 -1 5
-16 -1 -33 -14z"/>
<path d="M2126 2534 c-22 -21 -20 -67 2 -87 40 -37 102 -9 102 46 0 34 -24 57
-60 57 -16 0 -36 -7 -44 -16z m78 -13 c23 -25 17 -52 -13 -68 -46 -22 -84 24
-54 66 18 26 45 27 67 2z"/>
<path d="M885 2528 c-27 -15 -35 -28 -35 -60 0 -50 70 -77 103 -40 46 51 -10
132 -68 100z m59 -24 c30 -30 10 -74 -34 -74 -40 0 -58 32 -35 66 18 28 46 31
69 8z"/>
<path d="M730 2522 c-49 -15 -66 -74 -32 -105 40 -36 102 -9 102 44 0 42 -35
72 -70 61z m49 -44 c13 -22 13 -29 2 -42 -30 -36 -97 -8 -83 34 15 47 57 52
81 8z"/>
<path d="M4034 2438 c2 -7 -1 -28 -6 -46 -7 -24 -6 -38 3 -48 10 -12 10 -17 1
-23 -13 -8 65 -13 90 -5 9 3 22 21 28 40 10 29 9 39 -5 60 -14 22 -23 25 -61
22 -24 -2 -46 0 -48 5 -3 4 -3 2 -2 -5z"/>
<path d="M1006 2392 c-14 -22 -30 -43 -36 -47 -14 -9 -12 -58 4 -80 27 -37
104 -14 106 32 0 9 7 10 23 4 67 -25 118 69 58 106 -11 7 -45 16 -75 19 l-54
7 -26 -41z m69 6 c-4 -13 -7 -33 -7 -45 0 -25 -17 -30 -36 -11 -28 28 -5 77
37 78 9 0 11 -7 6 -22z m79 -4 c19 -7 21 -55 4 -72 -28 -28 -78 -7 -78 33 0
38 33 55 74 39z m-144 -54 c0 -6 13 -17 30 -24 28 -11 29 -13 14 -34 -18 -26
-41 -28 -66 -5 -21 19 -23 44 -6 61 15 15 28 16 28 2z"/>
<path d="M3141 2423 c-7 -3 -21 -23 -31 -46 -14 -30 -16 -46 -8 -68 8 -23 6
-33 -12 -57 -27 -36 -23 -69 10 -94 24 -17 28 -18 73 -2 73 25 98 74 56 113
-19 17 -20 24 -10 52 16 46 14 73 -7 92 -18 17 -44 20 -71 10z m69 -33 c16
-29 3 -59 -27 -66 -46 -12 -77 52 -39 78 21 14 55 8 66 -12z m-60 -83 c10 -4
7 -6 -7 -6 -13 -1 -23 1 -23 3 0 2 -3 13 -6 23 -6 16 -5 17 7 2 8 -9 21 -19
29 -22z m-16 -52 c-9 -14 -19 -24 -21 -21 -7 7 16 46 28 46 5 0 2 -11 -7 -25z
m84 3 c28 -28 7 -78 -33 -78 -27 0 -45 18 -45 45 0 27 18 45 45 45 12 0 26 -5
33 -12z m-81 -82 l28 -15 -25 -1 c-33 0 -50 17 -49 50 0 24 1 24 9 3 5 -12 22
-29 37 -37z"/>
<path d="M4372 2421 c-18 -3 -33 -9 -32 -13 2 -44 0 -50 -14 -39 -8 7 -32 11
-53 9 -33 -3 -41 -8 -59 -43 -12 -24 -29 -41 -41 -43 -33 -5 -57 -39 -58 -82
0 -21 4 -38 10 -37 5 1 9 -3 8 -9 -2 -12 56 -9 87 3 8 3 21 5 27 4 8 -1 10 4
7 14 -8 20 0 19 21 -1 13 -14 14 -19 3 -26 -10 -8 -9 -9 3 -5 9 3 26 -1 37 -9
22 -15 69 -5 84 19 25 39 -6 107 -49 107 -20 0 -23 3 -14 13 6 8 8 17 4 20 -3
4 -1 7 6 7 6 0 14 -7 17 -15 4 -10 16 -13 37 -11 36 5 66 -12 45 -25 -6 -4 8
-5 33 -2 63 8 80 27 77 82 l-3 46 -44 3 c-50 3 -64 9 -56 23 3 5 0 6 -8 3 -8
-3 -18 -1 -22 5 -3 6 -9 10 -13 10 -4 -1 -22 -4 -40 -8z"/>
<path d="M6049 2279 c-16 -16 -19 -27 -13 -52 3 -18 11 -38 17 -45 7 -9 5 -16
-9 -27 -16 -11 -17 -16 -6 -27 11 -11 12 -10 7 7 -6 20 -6 20 9 1 9 -12 13
-29 10 -43 -4 -13 -2 -23 5 -23 6 0 8 7 5 15 -7 18 -8 18 35 5 26 -7 38 -6 58
7 22 15 24 21 19 62 -10 82 -26 125 -51 135 -31 12 -65 6 -86 -15z"/>
<path d="M3917 2279 c7 -7 15 -10 18 -7 3 3 -2 9 -12 12 -14 6 -15 5 -6 -5z"/>
<path d="M2860 2260 c-11 -11 -20 -31 -20 -45 0 -30 32 -65 60 -65 53 0 81 84
38 114 -30 21 -54 20 -78 -4z m80 -19 c14 -27 13 -37 -6 -55 -40 -40 -101 3
-75 53 15 28 66 29 81 2z"/>
<path d="M3832 2240 c-41 -25 -51 -47 -40 -87 8 -32 42 -51 77 -44 8 1 10 -2
6 -10 -5 -7 -3 -10 6 -7 8 3 14 11 14 18 0 7 6 15 14 18 10 3 12 0 8 -12 -4
-10 -3 -15 3 -11 5 3 17 -3 27 -14 13 -15 19 -17 25 -8 6 9 10 8 18 -3 5 -8
10 -10 10 -4 0 16 32 27 40 14 4 -6 7 3 8 20 4 62 -1 106 -11 116 -4 5 -5 0
-1 -11 6 -16 5 -18 -7 -7 -19 17 -69 15 -91 -5 -20 -18 -25 -5 -5 16 10 11 9
12 -1 6 -7 -4 -21 0 -30 7 -30 26 -38 27 -70 8z m39 -30 c27 -15 26 -66 -2
-80 -16 -9 -26 -8 -45 5 -28 18 -31 41 -7 67 19 21 27 22 54 8z"/>
<path d="M7016 2233 c-6 -14 -5 -15 5 -6 7 7 10 15 7 18 -3 3 -9 -2 -12 -12z"/>
<path d="M1206 2214 c-22 -21 -20 -67 2 -87 40 -36 102 -9 102 45 0 49 -69 78
-104 42z m74 -14 c25 -25 25 -35 0 -60 -12 -12 -26 -17 -37 -13 -46 16 -55 43
-26 75 21 23 38 23 63 -2z"/>
<path d="M4085 2219 c-4 -6 -5 -12 -2 -15 2 -3 7 2 10 11 7 17 1 20 -8 4z"/>
<path d="M4431 2194 c0 -11 3 -14 6 -6 3 7 2 16 -1 19 -3 4 -6 -2 -5 -13z"/>
<path d="M6488 2185 c-22 -15 -38 -34 -38 -45 0 -10 -4 -22 -10 -25 -5 -3 -10
-1 -10 5 0 6 -11 -1 -25 -16 -14 -15 -25 -35 -25 -45 0 -9 -3 -25 -7 -35 -4
-12 -3 -15 5 -10 7 4 12 3 12 -3 0 -14 52 -61 68 -61 7 0 10 -4 7 -10 -3 -5
-1 -10 4 -10 6 0 11 5 11 10 0 6 6 10 13 10 24 0 48 36 50 76 3 47 18 52 51
20 26 -27 79 -35 91 -15 4 6 12 8 19 6 17 -7 18 63 1 90 -12 18 -25 23 -55 23
-28 0 -42 5 -49 19 -6 10 -8 20 -6 23 3 3 -1 5 -7 5 -7 0 -24 3 -38 7 -18 5
-35 -1 -62 -19z"/>
<path d="M924 2175 c-14 -21 -14 -30 -4 -55 22 -53 102 -50 116 5 16 65 -75
106 -112 50z m89 -6 c13 -21 1 -65 -19 -73 -23 -9 -64 20 -64 44 0 44 60 65
83 29z"/>
<path d="M3363 2182 c-39 -24 -29 -97 14 -108 19 -5 22 -11 17 -33 -4 -14 -11
-34 -16 -44 -14 -27 -2 -64 27 -83 29 -19 60 -11 81 22 9 13 24 24 34 24 24 0
53 35 53 66 0 35 -23 56 -70 63 -33 5 -38 10 -41 36 -2 17 -11 38 -19 48 -17
18 -59 23 -80 9z m67 -22 c39 -39 -13 -96 -59 -64 -27 20 -27 49 1 68 29 20
34 20 58 -4z m25 -87 c-11 -3 -26 -12 -32 -21 -7 -9 -13 -11 -13 -6 0 17 23
34 45 33 20 -1 20 -1 0 -6z m96 -27 c8 -18 8 -29 -2 -47 -13 -24 -13 -24 -19
11 -3 20 -10 41 -14 48 -4 7 -1 12 9 12 8 0 20 -11 26 -24z m-49 -3 c20 -18
22 -31 8 -53 -7 -12 -13 -9 -30 13 -12 15 -28 27 -37 27 -13 0 -13 3 -3 15 16
20 39 19 62 -2z m-34 -45 c28 -28 7 -78 -33 -78 -27 0 -45 18 -45 45 0 27 18
45 45 45 12 0 26 -5 33 -12z"/>
<path d="M4858 2183 c7 -3 16 -2 19 1 4 3 -2 6 -13 5 -11 0 -14 -3 -6 -6z"/>
<path d="M4447 2144 c-36 -48 -38 -69 -8 -98 26 -25 34 -26 92 -11 23 6 26 11
25 45 -3 70 -73 111 -109 64z"/>
<path d="M5438 2122 c-25 -8 -49 -22 -52 -31 -3 -9 -14 -29 -25 -46 -26 -39
-26 -96 -1 -145 22 -44 25 -54 10 -45 -5 3 -10 1 -10 -5 0 -7 7 -9 16 -6 15 6
54 -9 65 -26 12 -18 113 -11 151 11 44 26 60 50 77 113 11 40 11 51 -3 78 -9
18 -13 38 -9 44 3 6 3 8 -2 4 -4 -4 -18 6 -31 22 -17 19 -37 30 -67 35 -23 3
-49 8 -57 10 -8 1 -36 -4 -62 -13z"/>
<path d="M1057 2118 c-9 -7 -23 -35 -32 -63 -13 -44 -13 -52 1 -73 19 -29 37
-36 69 -28 30 8 43 31 52 91 4 36 2 50 -12 65 -21 23 -53 26 -78 8z m73 -28
c22 -41 -13 -80 -59 -65 -23 7 -33 42 -20 67 14 25 65 24 79 -2z m-42 -80 c26
0 33 -4 30 -17 -4 -22 -53 -30 -74 -12 -8 6 -14 21 -14 32 0 16 3 18 12 9 7
-7 27 -12 46 -12z"/>
<path d="M4358 2113 c7 -3 16 -2 19 1 4 3 -2 6 -13 5 -11 0 -14 -3 -6 -6z"/>
<path d="M1280 2053 c-14 -18 -34 -30 -57 -33 -24 -3 -43 -14 -57 -33 -20 -27
-20 -30 -4 -57 14 -24 14 -34 4 -64 -7 -20 -15 -39 -19 -42 -14 -14 -7 -61 11
-77 38 -35 102 -9 102 40 0 11 7 26 15 33 12 10 16 8 25 -14 22 -60 104 -57
117 4 5 27 7 28 18 13 17 -23 72 -21 90 3 8 10 15 29 15 42 0 26 -33 62 -58
62 -27 0 -62 -29 -62 -50 0 -12 -5 -17 -14 -14 -12 4 -11 10 1 36 12 23 13 35
4 54 -6 13 -14 24 -19 24 -5 0 -7 14 -4 30 10 66 -67 95 -108 43z m80 -3 c32
-32 23 -53 -26 -63 -53 -10 -75 37 -32 67 29 20 34 20 58 -4z m-110 -64 c31
-38 -9 -89 -54 -68 -45 20 -30 82 20 82 12 0 27 -7 34 -14z m128 -22 c42 -29
19 -78 -35 -72 -22 2 -29 9 -31 31 -2 19 3 33 15 43 23 17 24 17 51 -2z m-75
-104 c-10 -11 -18 -12 -31 -4 -24 16 -27 42 -7 65 17 18 18 18 35 -14 14 -27
14 -34 3 -47z m218 23 c12 -33 -19 -68 -54 -59 -31 7 -46 48 -26 72 18 22 70
14 80 -13z m-264 -60 c-12 -16 -49 -17 -65 -1 -20 20 -14 58 10 67 18 6 26 2
44 -23 14 -21 18 -35 11 -43z m136 26 c19 -27 10 -58 -19 -65 -48 -12 -75 18
-56 62 14 30 55 32 75 3z m-199 -44 c13 -9 28 -14 32 -13 5 2 10 0 12 -4 5
-18 1 -28 -18 -38 -35 -19 -78 18 -64 55 8 19 9 19 38 0z"/>
<path d="M6343 2035 c0 -8 4 -12 9 -9 4 3 8 9 8 15 0 5 -4 9 -8 9 -5 0 -9 -7
-9 -15z"/>
<path d="M5322 1990 c0 -14 2 -19 5 -12 2 6 2 18 0 25 -3 6 -5 1 -5 -13z"/>
<path d="M6291 1993 c-15 -10 -21 -25 -21 -49 0 -25 -4 -33 -12 -28 -7 4 1 -6
17 -22 17 -16 33 -27 38 -26 4 1 7 -3 7 -8 0 -7 7 -7 20 0 11 6 26 8 33 4 6
-4 9 -4 5 1 -4 4 1 18 11 31 47 59 -36 141 -98 97z"/>
<path d="M3892 1980 c1 -18 -3 -23 -10 -13 -5 8 -8 -1 -9 -22 -1 -20 -7 -42
-14 -51 -7 -8 -8 -14 -3 -13 20 4 26 -2 15 -15 -8 -10 -9 -16 -1 -21 5 -3 10
-2 10 4 0 7 8 7 22 2 26 -10 78 3 90 21 13 21 9 76 -7 91 -11 11 -11 17 -3 19
7 3 -11 4 -39 4 -28 -1 -51 -3 -51 -6z"/>
<path d="M6093 1910 c-28 -17 -33 -25 -33 -60 0 -43 17 -59 67 -62 15 -1 36
-10 46 -20 10 -10 22 -18 28 -18 6 0 8 -4 5 -9 -3 -4 3 -18 13 -30 20 -23 69
-28 102 -11 25 14 24 1 -5 -34 -14 -16 -22 -36 -19 -44 5 -12 2 -12 -16 -3
-12 7 -26 9 -31 6 -10 -6 -23 12 -27 38 -2 12 1 16 9 11 7 -4 -2 7 -20 25 -18
17 -38 31 -43 31 -6 0 -7 6 -4 13 4 6 0 4 -8 -5 -8 -10 -21 -18 -29 -18 -24 0
-38 -22 -38 -60 0 -64 66 -94 110 -50 28 28 35 25 11 -6 -18 -22 -20 -38 -18
-106 4 -91 14 -107 73 -115 54 -7 79 20 70 74 -4 21 -9 58 -13 83 -5 39 -3 43
10 32 8 -7 22 -10 31 -6 11 4 19 -1 25 -17 9 -22 10 -22 10 -4 1 21 35 58 44
48 3 -2 1 15 -4 39 -11 47 -44 81 -71 72 -10 -3 -18 -2 -19 3 -6 74 -16 98
-45 112 -14 6 -23 15 -19 20 3 5 0 13 -6 16 -5 4 -8 14 -5 22 4 9 2 11 -6 6
-23 -14 -78 -2 -103 23 -29 29 -31 29 -72 4z"/>
<path d="M6376 1827 c3 -10 9 -15 12 -12 3 3 0 11 -7 18 -10 9 -11 8 -5 -6z"/>
<path d="M2057 1762 c-22 -24 -21 -65 1 -85 40 -36 102 -9 102 45 0 51 -69 78
-103 40z m73 -12 c11 -11 20 -24 20 -30 0 -5 -9 -19 -20 -30 -11 -11 -24 -20
-30 -20 -14 0 -50 37 -50 52 0 16 31 48 47 48 7 0 22 -9 33 -20z"/>
<path d="M1735 1665 c-14 -13 -25 -33 -25 -44 0 -20 35 -61 52 -61 4 0 -1 -9
-12 -20 -11 -11 -20 -31 -20 -45 0 -29 32 -65 58 -65 62 0 87 87 34 117 l-28
16 23 23 c29 30 29 49 -2 79 -13 14 -31 25 -40 25 -9 0 -27 -11 -40 -25z m73
-7 c7 -7 12 -21 12 -33 0 -12 -5 -26 -12 -33 -7 -7 -21 -12 -33 -12 -12 0 -26
5 -33 12 -7 7 -12 21 -12 33 0 12 5 26 12 33 7 7 21 12 33 12 12 0 26 -5 33
-12z m22 -137 c14 -27 13 -37 -6 -55 -23 -23 -51 -20 -69 8 -13 19 -14 29 -5
45 14 28 65 29 80 2z"/>
<path d="M1526 1649 c-9 -13 -16 -32 -16 -43 0 -16 -3 -17 -12 -8 -18 18 -63
14 -81 -6 -36 -40 -9 -102 45 -102 30 0 58 28 58 58 0 21 1 21 30 4 18 -10 30
-25 30 -37 0 -34 28 -65 58 -65 49 0 77 38 59 80 -6 14 -11 40 -11 59 -1 43
-34 69 -97 77 -41 6 -48 4 -63 -17z m49 -26 c-8 -16 -12 -36 -9 -45 6 -21 -6
-24 -24 -6 -13 13 -16 60 -5 71 3 4 17 7 29 7 22 0 22 -1 9 -27z m84 3 c7 -8
11 -27 9 -43 -2 -22 -9 -29 -31 -31 -50 -6 -75 38 -41 72 19 20 48 20 63 2z
m-169 -46 c11 -11 20 -24 20 -30 0 -5 -9 -19 -20 -30 -11 -11 -24 -20 -30 -20
-5 0 -19 9 -30 20 -11 11 -20 25 -20 30 0 6 9 19 20 30 11 11 25 20 30 20 6 0
19 -9 30 -20z m196 -85 c-12 -46 -86 -37 -86 10 0 19 5 25 23 25 12 0 29 5 37
10 19 12 34 -13 26 -45z"/>
<path d="M5483 1627 c-30 -33 -35 -57 -18 -83 11 -17 11 -24 2 -27 -6 -2 11
-4 39 -5 62 -3 86 18 88 77 1 22 0 38 -3 36 -2 -3 -9 -1 -15 4 -6 4 -25 11
-42 14 -24 5 -36 1 -51 -16z"/>
<path d="M5834 1549 c-4 -6 -19 -9 -36 -5 -28 5 -29 4 -17 -11 12 -14 12 -16
-2 -11 -12 5 -15 -2 -14 -38 1 -24 7 -49 13 -57 7 -8 9 -17 5 -20 -3 -4 1 -7
10 -7 8 0 17 -6 19 -12 3 -9 9 -8 22 5 19 18 41 24 31 7 -3 -5 -1 -10 5 -10 6
0 10 6 8 13 -1 6 3 22 10 34 17 31 5 79 -25 92 -13 6 -21 16 -18 21 3 6 4 10
1 10 -3 0 -8 -5 -12 -11z"/>
<path d="M6352 1470 c0 -14 2 -19 5 -12 2 6 2 18 0 25 -3 6 -5 1 -5 -13z"/>
<path d="M6377 1463 c-4 -3 -7 -11 -7 -17 0 -6 5 -5 12 2 6 6 9 14 7 17 -3 3
-9 2 -12 -2z"/>
<path d="M1852 1439 c-18 -5 -38 -18 -44 -29 -11 -17 -20 -18 -68 -13 -65 6
-90 -9 -90 -56 0 -35 24 -57 73 -65 36 -7 38 -8 23 -25 -9 -10 -16 -26 -16
-37 0 -28 28 -64 51 -64 10 0 19 -6 19 -14 0 -20 39 -66 56 -66 8 0 25 -12 38
-27 23 -26 25 -27 84 -17 l60 10 11 -33 c21 -56 88 -57 111 -3 10 25 10 34 -4
54 -19 30 -49 40 -76 26 -18 -10 -20 -8 -20 18 0 19 10 37 30 55 34 30 38 61
14 96 -14 20 -23 22 -55 18 -29 -4 -41 -1 -48 11 -5 8 -28 18 -52 21 -42 6
-68 31 -31 31 46 0 69 71 34 103 -20 19 -50 20 -100 6z m79 -9 c27 -15 26 -66
-2 -80 -16 -9 -26 -8 -45 5 -28 18 -31 41 -7 67 19 21 27 22 54 8z m-64 -82
c15 -17 14 -18 -10 -18 -16 0 -30 8 -37 19 -14 27 -13 37 8 57 16 17 17 16 20
-12 2 -16 11 -37 19 -46z m-157 23 c-5 -11 -10 -31 -10 -45 0 -33 -17 -33 -32
-1 -9 21 -8 28 7 45 24 27 50 27 35 1z m85 -15 c23 -34 5 -66 -36 -66 -41 0
-61 40 -34 70 24 27 51 25 70 -4z m105 -67 c9 -16 8 -26 -5 -45 -19 -29 -46
-31 -70 -4 -15 17 -16 24 -7 45 15 32 66 35 82 4z m82 -16 c25 -22 23 -50 -6
-68 -20 -13 -29 -14 -46 -5 -18 9 -20 17 -14 43 10 48 34 59 66 30z m-154 -56
l27 -16 -27 -1 c-31 0 -52 29 -41 57 7 17 8 16 11 -2 1 -12 15 -28 30 -38z
m271 11 c5 -13 6 -29 3 -37 -4 -10 -8 -7 -14 10 -5 13 -16 30 -25 37 -15 11
-15 12 5 12 14 0 26 -8 31 -22z m-329 -2 c0 -8 12 -23 26 -34 30 -21 15 -35
-23 -21 -17 6 -23 16 -23 39 0 16 5 30 10 30 6 0 10 -6 10 -14z m300 -15 c14
-27 13 -37 -6 -55 -20 -20 -48 -20 -68 0 -15 14 -15 18 1 45 20 34 57 39 73
10z m-160 -16 c7 -8 23 -15 35 -15 22 0 40 -22 28 -34 -14 -13 -37 -4 -64 25
-16 17 -29 33 -29 35 0 10 19 3 30 -11z m-14 -29 c18 -14 18 -16 2 -43 -9 -15
-24 -29 -33 -31 -22 -5 -45 16 -45 42 0 43 39 59 76 32z m79 -56 c36 -40 -7
-96 -55 -70 -29 15 -28 68 3 80 31 12 32 12 52 -10z m56 10 c23 -13 24 -37 2
-62 -22 -24 -31 -23 -30 5 1 12 -2 32 -7 45 -8 25 3 29 35 12z m107 -62 c7 -7
12 -21 12 -33 0 -12 -5 -26 -12 -33 -7 -7 -21 -12 -33 -12 -12 0 -26 5 -33 12
-7 7 -12 21 -12 33 0 12 5 26 12 33 7 7 21 12 33 12 12 0 26 -5 33 -12z"/>
<path d="M5921 1419 c-20 -32 -19 -47 7 -86 16 -26 59 -31 81 -10 11 10 13 9
7 -6 -3 -10 -6 -23 -6 -28 0 -6 -15 -7 -37 -3 -21 4 -43 7 -50 7 -7 0 -10 4
-7 8 8 14 -26 70 -48 78 -28 10 -75 -16 -83 -46 -6 -26 3 -73 15 -73 5 0 6 -9
3 -20 -3 -13 -12 -20 -22 -18 -19 4 -50 -20 -61 -47 -5 -12 -2 -33 6 -54 15
-37 11 -53 -9 -31 -10 10 -9 11 3 5 9 -5 12 -4 7 1 -10 10 -118 13 -111 3 2
-4 -2 -18 -9 -30 -13 -27 -57 -29 -57 -3 0 8 -16 22 -36 30 -20 8 -33 18 -30
21 3 4 -1 17 -10 31 -14 22 -14 25 3 45 10 11 12 17 6 13 -9 -5 -13 -1 -13 11
-2 82 -130 80 -130 -2 0 -14 -6 -25 -13 -25 -15 0 -37 -41 -37 -69 0 -23 41
-61 66 -61 10 0 25 -4 32 -9 10 -6 7 -10 -12 -15 -31 -8 -42 -26 -51 -88 -6
-43 -5 -49 20 -72 21 -19 34 -24 54 -19 38 9 38 9 56 63 10 29 23 50 31 50 8
0 14 -4 14 -8 0 -24 38 -50 69 -48 34 2 76 39 65 57 -7 12 20 11 32 -1 7 -7
19 -3 36 13 l26 24 21 -20 c17 -18 26 -19 58 -11 31 7 40 15 48 42 5 17 13 32
18 32 4 0 5 -10 2 -22 -5 -17 -4 -19 4 -9 5 8 17 16 26 17 10 1 28 13 42 26
20 19 24 30 20 60 -3 21 -2 37 1 36 14 -4 52 23 47 33 -12 18 5 27 40 19 29
-7 38 -4 57 15 37 37 49 55 39 55 -5 0 -16 12 -23 28 -11 23 -20 27 -54 27
l-41 0 5 41 c5 50 -15 74 -64 74 -28 0 -38 -6 -53 -31z"/>
<path d="M4115 1425 c-28 -14 -30 -19 -27 -59 3 -38 8 -46 33 -56 56 -24 99 6
103 71 1 16 0 26 -3 24 -2 -3 -11 1 -20 9 -26 23 -54 26 -86 11z"/>
<path d="M2082 1423 c-7 -3 -17 -16 -22 -29 -28 -71 72 -118 110 -51 13 24 13
30 0 55 -15 27 -56 39 -88 25z m59 -13 c28 -16 26 -68 -3 -79 -47 -18 -87 38
-53 73 19 19 29 20 56 6z"/>
<path d="M5481 1331 c-19 -35 -18 -64 2 -88 50 -57 151 4 116 70 -6 9 -8 21
-5 25 2 4 -20 9 -49 10 -45 3 -55 0 -64 -17z"/>
<path d="M2305 1258 c-69 -23 -80 -32 -80 -67 0 -25 7 -39 27 -54 25 -19 28
-19 52 -4 14 10 36 17 48 17 46 0 77 45 57 83 -21 39 -44 45 -104 25z m83 -21
c17 -13 15 -42 -4 -61 -24 -25 -44 -20 -44 12 0 15 -6 34 -12 40 -10 10 -10
15 1 21 15 9 37 5 59 -12z m-69 -25 c27 -50 -32 -94 -72 -54 -18 18 -19 25 -9
47 14 31 66 36 81 7z"/>
<path d="M2562 1159 c-53 -20 -51 -101 3 -115 18 -4 24 -11 20 -22 -3 -8 2
-26 11 -40 9 -14 14 -35 11 -50 -4 -20 3 -34 28 -59 18 -18 40 -33 48 -33 29
0 82 45 85 72 4 36 -14 68 -38 68 -15 0 -20 7 -20 28 0 32 -27 62 -54 62 -12
0 -16 5 -12 18 7 23 -14 63 -39 72 -11 4 -30 4 -43 -1z m53 -25 c34 -35 1 -83
-48 -70 -21 5 -27 12 -27 34 0 49 42 69 75 36z m59 -87 c12 -9 17 -23 14 -42
-2 -24 -8 -31 -31 -33 -51 -6 -74 33 -40 70 19 21 33 23 57 5z m68 -94 c35
-31 16 -73 -34 -73 -38 0 -55 33 -33 66 18 28 41 31 67 7z m-115 -25 c-3 -8
-6 -5 -6 6 -1 11 2 17 5 13 3 -3 4 -12 1 -19z m41 -50 c19 -22 9 -24 -12 -2
-9 8 -16 23 -15 32 0 14 2 14 6 2 3 -8 12 -23 21 -32z"/>
<path d="M3636 1009 c-15 -12 -26 -30 -26 -44 0 -28 36 -65 62 -65 23 0 68 43
68 65 0 20 -44 65 -63 65 -8 0 -26 -9 -41 -21z m72 -11 c28 -28 7 -78 -33 -78
-27 0 -45 18 -45 45 0 27 18 45 45 45 12 0 26 -5 33 -12z"/>
<path d="M4792 1025 c4 -4 -6 -18 -23 -32 -31 -26 -31 -33 -8 -94 9 -24 13
-25 55 -19 38 6 44 4 44 -10 0 -18 63 -55 78 -46 4 2 9 -16 10 -41 3 -70 45
-104 96 -78 13 7 26 11 28 9 2 -2 5 13 6 33 2 20 5 40 8 44 3 5 0 18 -6 29 -9
17 -8 20 12 21 13 1 26 1 29 1 4 -1 6 6 5 15 0 9 5 18 12 20 12 5 17 -19 14
-62 -2 -16 0 -17 8 -5 8 13 10 12 10 -2 0 -10 5 -18 11 -18 5 0 7 4 4 10 -3 6
1 7 10 4 21 -8 60 3 79 22 21 20 21 93 0 122 -8 12 -24 22 -35 22 -21 0 -26
16 -6 23 13 5 2 7 -73 11 -25 1 -52 5 -60 8 -30 12 -86 18 -70 8 9 -6 10 -10
3 -10 -15 0 -29 -35 -32 -85 -1 -18 -3 -18 -14 -4 -19 25 -57 41 -83 35 -16
-4 -24 -2 -24 6 0 23 -15 37 -55 54 -22 9 -37 13 -33 9z"/>
<path d="M5270 990 c14 -10 27 -17 29 -14 6 5 -31 33 -44 33 -5 1 1 -8 15 -19z"/>
<path d="M3050 940 c-11 -11 -20 -29 -20 -39 0 -11 -4 -23 -10 -26 -14 -8 -13
-68 2 -83 8 -8 5 -14 -15 -23 -15 -7 -27 -17 -27 -23 0 -6 -8 5 -18 24 -13 27
-24 36 -47 37 -59 5 -89 -46 -54 -90 25 -32 61 -35 89 -7 l20 20 0 -23 c0 -31
39 -67 73 -67 47 0 73 63 42 106 -13 19 -12 22 10 32 14 7 25 16 25 22 0 5 13
16 30 25 65 34 61 106 -9 125 -52 14 -68 13 -91 -10z m30 -20 c-11 -20 -30
-28 -30 -12 0 11 22 32 32 32 5 0 4 -9 -2 -20z m88 -2 c28 -28 7 -78 -33 -78
-27 0 -45 18 -45 45 0 27 18 45 45 45 12 0 26 -5 33 -12z m-83 -65 c32 -36 31
-51 -2 -59 -49 -13 -82 35 -48 70 21 21 22 21 50 -11z m-154 -63 c28 -16 26
-68 -3 -79 -47 -18 -87 38 -53 73 19 19 29 20 56 6z m142 -61 c30 -42 -8 -88
-54 -66 -30 16 -36 43 -13 68 22 25 49 24 67 -2z"/>
<path d="M2303 925 c-41 -17 -52 -55 -28 -91 15 -24 22 -26 63 -21 31 3 52 12
64 27 23 29 23 41 -3 74 -23 29 -48 32 -96 11z m97 -49 c-1 -20 -2 -20 -15 4
-19 33 -19 46 0 30 8 -7 15 -22 15 -34z m-40 20 c31 -39 -26 -98 -64 -66 -19
15 -21 66 -3 73 24 10 55 7 67 -7z"/>
<path d="M4365 907 c-40 -12 -40 -12 -40 -64 0 -28 2 -51 5 -51 18 2 28 -5 43
-32 15 -25 25 -30 55 -30 83 0 94 76 23 149 -22 22 -42 41 -43 40 -2 -1 -21
-6 -43 -12z"/>
<path d="M4580 913 c-66 -8 -88 -55 -53 -113 14 -25 21 -28 52 -23 20 3 42 10
49 16 18 14 16 93 -4 101 -8 3 -12 10 -9 16 3 5 5 9 3 8 -2 0 -19 -3 -38 -5z"/>
<path d="M3488 893 c-22 -26 -26 -45 -17 -71 16 -43 85 -48 111 -8 37 55 -51
129 -94 79z m80 -27 c16 -36 -14 -72 -51 -62 -31 7 -46 48 -27 71 20 24 65 19
78 -9z"/>
<path d="M3831 888 c0 -10 -8 -18 -16 -18 -23 0 -47 -54 -36 -83 6 -14 15 -28
21 -32 9 -6 9 -10 -1 -17 -11 -7 -9 -8 4 -4 10 3 27 6 38 6 11 0 30 10 43 23
33 33 25 85 -15 100 -16 6 -30 18 -33 27 -3 12 -4 11 -5 -2z m47 -75 c3 -27
-1 -35 -22 -45 -22 -9 -29 -8 -46 7 -38 35 -17 78 35 73 26 -3 30 -8 33 -35z"/>
<path d="M4129 862 c-22 -29 -21 -88 3 -103 10 -7 10 -9 1 -9 -23 0 -53 -40
-53 -70 0 -34 33 -70 65 -70 32 0 65 36 65 71 0 24 4 30 15 25 8 -3 15 -1 15
4 0 5 8 7 18 3 9 -3 14 -3 10 2 -4 4 -3 14 3 22 24 29 18 61 -20 102 -49 52
-92 60 -122 23z"/>
<path d="M4807 844 c-39 -21 -51 -57 -32 -95 14 -25 21 -29 60 -29 51 0 68 20
63 72 -2 23 -11 37 -33 49 -27 16 -33 16 -58 3z"/>
<path d="M5400 830 c-13 -8 -12 -10 3 -10 9 0 17 5 17 10 0 12 -1 12 -20 0z"/>
<path d="M2585 807 c-10 -16 -14 -34 -9 -51 13 -53 87 -62 114 -13 13 24 13
30 0 55 -22 39 -82 44 -105 9z m79 -3 c41 -40 -6 -101 -53 -68 -11 8 -21 24
-21 34 0 22 25 50 45 50 7 0 21 -7 29 -16z"/>
<path d="M6820 820 c0 -13 11 -13 30 0 12 8 11 10 -7 10 -13 0 -23 -4 -23 -10z"/>
<path d="M6826 794 c-19 -19 -21 -87 -3 -102 12 -10 43 -15 89 -13 22 1 25 5
20 23 -3 14 -1 19 6 14 13 -8 -4 62 -20 82 -15 17 -74 15 -92 -4z"/>
<path d="M4740 781 c0 -6 4 -13 10 -16 6 -3 7 1 4 9 -7 18 -14 21 -14 7z"/>
<path d="M4915 770 c-3 -5 -1 -10 4 -10 6 0 11 5 11 10 0 6 -2 10 -4 10 -3 0
-8 -4 -11 -10z"/>
<path d="M3893 751 c-19 -16 -20 -20 -7 -25 24 -9 42 -6 19 4 -15 6 -16 9 -4
9 9 1 16 8 16 16 0 8 -1 15 -1 15 -1 -1 -11 -9 -23 -19z"/>
<path d="M6570 759 c0 -7 -3 -9 -7 -6 -3 4 -16 -2 -28 -13 -16 -15 -20 -28
-17 -55 6 -47 37 -69 87 -59 20 3 34 9 31 12 -3 3 -1 11 5 18 7 8 9 28 5 47
-6 32 -12 38 -68 65 -5 2 -8 -2 -8 -9z"/>
<path d="M4553 753 c9 -2 23 -2 30 0 6 3 -1 5 -18 5 -16 0 -22 -2 -12 -5z"/>
<path d="M3680 737 c-18 -9 -26 -22 -28 -46 -6 -56 39 -87 88 -61 16 8 18 7
14 -4 -7 -18 25 -88 36 -81 5 3 11 1 14 -4 4 -5 2 -12 -3 -16 -14 -8 -9 -44 6
-38 7 3 16 -9 22 -29 l10 -33 -3 38 c-4 43 6 47 37 12 14 -16 37 -28 62 -32
22 -3 37 -2 33 2 -4 4 -1 14 7 22 10 9 15 35 15 73 0 68 -15 90 -64 90 -36 0
-89 43 -64 53 7 3 -5 3 -27 0 -22 -3 -46 -10 -52 -16 -10 -7 -13 -3 -13 14 -1
49 -47 78 -90 56z m64 -29 c13 -19 14 -25 2 -43 -16 -25 -65 -27 -79 -3 -8 12
-8 24 1 42 15 33 55 35 76 4z m100 -64 c30 -30 13 -74 -29 -74 -60 0 -59 88 2
90 6 0 19 -7 27 -16z m-24 -134 c0 -5 -4 -10 -10 -10 -5 0 -10 5 -10 10 0 6 5
10 10 10 6 0 10 -4 10 -10z"/>
<path d="M3825 722 c3 -3 -1 -12 -8 -20 -10 -13 -9 -14 11 -3 25 13 29 28 7
28 -8 0 -13 -3 -10 -5z"/>
<path d="M4432 688 c-26 -29 -28 -65 -6 -97 14 -20 23 -23 60 -18 40 4 45 2
50 -20 4 -13 19 -30 35 -39 27 -13 32 -13 60 3 30 18 36 31 41 88 2 22 -4 38
-24 58 -31 30 -55 34 -83 13 -16 -12 -21 -11 -34 5 -26 31 -72 34 -99 7z"/>
<path d="M4660 685 c0 -8 4 -15 10 -15 5 0 7 7 4 15 -4 8 -8 15 -10 15 -2 0
-4 -7 -4 -15z"/>
<path d="M3896 678 c3 -4 9 -8 15 -8 5 0 9 4 9 8 0 5 -7 9 -15 9 -8 0 -12 -4
-9 -9z"/>
<path d="M3121 631 c-25 -25 -27 -49 -5 -79 24 -35 84 -28 103 12 12 25 11 31
-6 55 -26 33 -65 39 -92 12z m79 -16 c31 -38 -27 -96 -65 -65 -15 13 -21 61
-8 73 12 13 60 7 73 -8z"/>
<path d="M4216 628 c3 -4 1 -8 -4 -8 -20 0 -30 -46 -17 -77 7 -17 11 -34 8
-37 -7 -7 35 -45 51 -47 22 -2 51 3 62 12 6 5 13 7 15 5 2 -2 5 15 7 39 1 24
-2 46 -8 50 -6 4 -8 16 -4 27 4 15 3 18 -7 13 -9 -6 -11 -3 -6 9 4 9 3 15 -1
13 -4 -3 -28 -2 -54 2 -26 4 -45 4 -42 -1z"/>
<path d="M4411 564 c0 -11 3 -14 6 -6 3 7 2 16 -1 19 -3 4 -6 -2 -5 -13z"/>
<path d="M4367 487 c-3 -8 1 -14 9 -14 16 0 19 13 5 21 -5 3 -11 0 -14 -7z"/>
<path d="M3811 250 c0 -8 4 -22 9 -30 12 -18 12 -2 0 25 -6 13 -9 15 -9 5z"/>
</g>
</svg>
